<svg id="Capa_1" enable-background="new 0 0 512 512" height="512" viewBox="0 0 512 512" width="512" xmlns="http://www.w3.org/2000/svg"><path d="m348.25 45.508c-32.671 0-59.25 26.58-59.25 59.25v57.72c-12.245 4.984-23.483 12.334-33 21.692-9.517-9.358-20.755-16.708-33-21.692v-57.72c0-32.67-26.579-59.25-59.25-59.25h-163.75v32c0 26.805 18.069 49.468 42.667 56.449v4.217c0 32.349 26.317 58.667 58.666 58.667h1.556c-12.178 16.728-19.375 37.304-19.375 59.532 0 27.543 10.873 53.315 30.647 72.599l141.839 137.52 141.87-137.549c19.743-19.253 30.616-45.025 30.616-72.569 0-22.228-7.197-42.804-19.375-59.532h1.556c32.349 0 58.666-26.318 58.666-58.667v-4.217c24.598-6.981 42.667-29.645 42.667-56.45v-32zm-275.583 92.667v-2h66.125v-30h-80.125c-15.807 0-28.667-12.86-28.667-28.667v-2h133.75c16.129 0 29.25 13.122 29.25 29.25v50.574c-2.688-.217-5.393-.333-8.112-.333-17.155 0-33.324 4.289-47.503 11.842h-36.052c-15.807 0-28.666-12.86-28.666-28.666zm304.289 169.259-120.956 117.273-120.925-117.243c-13.904-13.559-21.562-31.703-21.562-51.09 0-39.356 32.019-71.375 71.374-71.375 23.025 0 44.771 11.23 58.166 30.042l4.486 6.299h16.92l4.486-6.299c13.396-18.812 35.141-30.042 58.166-30.042 39.355 0 71.374 32.019 71.374 71.375.001 19.387-7.656 37.531-21.529 51.06zm105.044-229.926c0 15.807-12.86 28.667-28.667 28.667h-80.125v30h66.125v2c0 15.807-12.859 28.667-28.666 28.667h-36.052c-14.178-7.553-30.348-11.842-47.503-11.842-2.719 0-5.424.116-8.112.333v-50.574c0-16.128 13.121-29.25 29.25-29.25h133.75z"/></svg>