<svg id="Capa_1" enable-background="new 0 0 512 512" height="512" viewBox="0 0 512 512" width="512" xmlns="http://www.w3.org/2000/svg"><g><path d="m426.723 73.453v-55.632l-127.432 40.96c-22.257 7.154-39.838 22.844-49.653 42.777-15.393-17.232-37.762-28.107-62.632-28.107h-187.006v420.726h512v-420.724zm-396.723 390.726v-42.695h157.006c25.897 0 47.586 18.33 52.796 42.695zm211-52.994c-14.61-12.291-33.452-19.702-53.994-19.702h-157.006v-288.03h157.006c29.772 0 53.994 24.222 53.994 53.994zm30-272.438c0-23.542 15.059-44.2 37.472-51.404l88.251-28.367v279.934l-97.432 31.318c-10.6 3.407-20.143 8.749-28.292 15.562v-247.043zm211 325.432h-211v-13.986c0-10.447 2.971-20.322 8.228-28.709h202.772zm0-72.696h-150.801l95.524-30.704v-257.326h55.277z"/><path d="m70.69 135.742h129.62v30h-129.62z"/><path d="m70.69 198.031h129.62v30h-129.62z"/><path d="m70.69 260.32h129.62v30h-129.62z"/><path d="m70.69 322.609h129.62v30h-129.62z"/></g></svg>