<?xml version="1.0" encoding="iso-8859-1"?>
<!-- Generator: Adobe Illustrator 19.0.0, SVG Export Plug-In . SVG Version: 6.00 Build 0)  -->
<svg version="1.1" id="Layer_1" xmlns="http://www.w3.org/2000/svg" xmlns:xlink="http://www.w3.org/1999/xlink" x="0px" y="0px"
	 viewBox="0 0 512 512" style="enable-background:new 0 0 512 512;" xml:space="preserve">
<g>
	<g>
		<path d="M350.12,0H202.028C127.562,0,66.98,60.582,66.98,135.047v76.889c-24.501,20.21-40.146,50.792-40.146,84.958
			c0,54.008,39.091,99.055,90.465,108.339V512h317.339V377.187c30.788-24.773,50.529-62.745,50.529-105.246V135.047
			C485.167,60.582,424.584,0,350.12,0z M401.246,478.609H150.69v-71.621h199.43h51.127V478.609z M451.776,271.941
			c0,56.054-45.604,101.655-101.656,101.655h-213.19c-42.294,0-76.704-34.409-76.704-76.703c0-42.295,34.41-76.703,76.704-76.703
			h58.469c17.317,0,31.403,14.087,31.403,31.403s-14.088,31.403-31.403,31.403h-71.433v33.391h71.433
			c29.956,0,55.219-20.438,62.603-48.099h124.196c26.801,0,51.24-10.296,69.579-27.135V271.941z M451.776,165.319
			c0,38.367-31.213,69.579-69.579,69.579H258.002c-7.384-27.661-32.647-48.099-62.603-48.099h-58.469
			c-12.809,0-25.114,2.199-36.558,6.239v-57.992c0-56.053,45.602-101.655,101.656-101.655H350.12
			c56.053,0,101.656,45.602,101.656,101.655V165.319z"/>
	</g>
</g>
<g>
	<g>
		<rect x="234.04" y="426.106" width="83.868" height="33.391"/>
	</g>
</g>
<g>
</g>
<g>
</g>
<g>
</g>
<g>
</g>
<g>
</g>
<g>
</g>
<g>
</g>
<g>
</g>
<g>
</g>
<g>
</g>
<g>
</g>
<g>
</g>
<g>
</g>
<g>
</g>
<g>
</g>
</svg>
