<?xml version="1.0" encoding="iso-8859-1"?>
<!-- Generator: Adobe Illustrator 19.0.0, SVG Export Plug-In . SVG Version: 6.00 Build 0)  -->
<svg version="1.1" id="Capa_1" xmlns="http://www.w3.org/2000/svg" xmlns:xlink="http://www.w3.org/1999/xlink" x="0px" y="0px"
	 viewBox="0 0 512 512" style="enable-background:new 0 0 512 512;" xml:space="preserve">
<g>
	<g>
		<path d="M437.02,74.98C388.667,26.629,324.38,0,256,0S123.333,26.629,74.98,74.98C26.629,123.333,0,187.62,0,256
			s26.629,132.667,74.98,181.02C123.333,485.371,187.62,512,256,512s132.667-26.629,181.02-74.98
			C485.371,388.667,512,324.38,512,256S485.371,123.333,437.02,74.98z M256,482C131.383,482,30,380.617,30,256S131.383,30,256,30
			s226,101.383,226,226S380.617,482,256,482z"/>
	</g>
</g>
<g>
	<g>
		<path d="M202.465,201.898l-90.39,197.999L310,309.345l90.391-198L202.465,201.898z M172.797,339.125l45.668-100.037l54.332,54.287
			L172.797,339.125z M294.001,272.154l-54.332-54.287l100.001-45.751L294.001,272.154z"/>
	</g>
</g>
<g>
	<g>
		<rect x="241" y="60" width="30" height="30"/>
	</g>
</g>
<g>
	<g>
		<rect x="60" y="241" width="30" height="30"/>
	</g>
</g>
<g>
	<g>
		<rect x="241" y="422" width="30" height="30"/>
	</g>
</g>
<g>
	<g>
		<rect x="422" y="241" width="30" height="30"/>
	</g>
</g>
<g>
</g>
<g>
</g>
<g>
</g>
<g>
</g>
<g>
</g>
<g>
</g>
<g>
</g>
<g>
</g>
<g>
</g>
<g>
</g>
<g>
</g>
<g>
</g>
<g>
</g>
<g>
</g>
<g>
</g>
</svg>
