<svg viewBox="0 1 511 511.99901" xmlns="http://www.w3.org/2000/svg"><path d="m316.496094 120c-24.8125 0-45 20.1875-45 45s20.1875 45 45 45 45-20.1875 45-45-20.183594-45-45-45zm0 60c-8.269532 0-15-6.730469-15-15 0-8.273438 6.730468-15 15-15 8.273437 0 15 6.726562 15 15 0 8.269531-6.726563 15-15 15zm0 0"/><path d="m241.5 165c0-24.8125-20.1875-45-45-45-24.816406 0-45 20.1875-45 45s20.183594 45 45 45c24.8125 0 45-20.1875 45-45zm-45 15c-8.273438 0-15-6.730469-15-15 0-8.273438 6.726562-15 15-15 8.269531 0 15 6.726562 15 15 0 8.269531-6.730469 15-15 15zm0 0"/><path d="m256.496094 240c-25.230469 0-44.996094 26.351562-44.996094 60 0 33.644531 19.765625 59.996094 44.996094 59.996094 25.234375 0 45-26.351563 45-59.996094 0-33.648438-19.765625-60-45-60zm0 90c-6.113282 0-14.996094-11.6875-14.996094-30 0-18.316406 8.882812-30 14.996094-30 6.117187 0 15 11.683594 15 30 0 18.3125-8.882813 30-15 30zm0 0"/><path d="m512.496094 255c0-41.347656-34.417969-74.972656-75.945313-75-8.265625-.007812-15.070312-6.210938-15.054687-14.246094v-.753906c0-90.980469-74.019532-165-165-165-90.980469 0-164.996094 74.019531-164.996094 165 0 8.269531-6.730469 15-15 15-41.460938 0-76 33.535156-76 75v45h45c24.933594 0 46 20.605469 46 44.996094 0 7.199218.015625 130.410156.042969 152.019531.007812 8.277344 6.722656 14.980469 15 14.980469h.011719c24.460937-.015625 46.222656-11.8125 59.910156-30.007813 9.976562 13.324219 24.367187 23.3125 41.394531 27.671875 2.460937.628906 5.039063.621094 7.5-.019531 16.902344-4.402344 31.195313-14.363281 41.128906-27.617187 9.984375 13.3125 24.375 23.269531 41.40625 27.597656 2.445313.621094 5.011719.617187 7.457031-.015625 16.921876-4.386719 31.234376-14.351563 41.171876-27.621094 13.695312 18.214844 35.480468 30.011719 59.972656 30.015625h.003906c3.976562 0 7.792969-1.582031 10.605469-4.394531s4.390625-6.628907 4.390625-10.605469v-152.003906c0-24.390625 21.066406-44.996094 46-44.996094h45zm-30 15h-15c-41.457032 0-76 33.535156-76 74.996094v134.433594c-17.460938-6.195313-30-22.875-30-42.433594 0-8.28125-6.714844-15-15-15-8.28125 0-15 6.71875-15 15 0 19.207031-12.132813 36.132812-29.945313 42.429687-17.875-6.230469-30.054687-23.15625-30.054687-42.429687 0-8.28125-6.714844-15-15-15-8.28125 0-14.996094 6.71875-14.996094 15 0 19.191406-12.140625 36.128906-29.957031 42.464844-17.871094-6.269532-30.042969-23.207032-30.042969-42.464844 0-8.28125-6.71875-15-15-15-8.285156 0-15 6.71875-15 15 0 19.542968-12.628906 36.21875-30.074219 42.421875-.03125-48.28125.074219-125.324219.074219-134.421875 0-41.457032-34.535156-74.996094-76-74.996094h-15v-15c0-24.394531 21.0625-45 46-45 23.867188 0 43.445312-18.683594 44.902344-42.191406h.097656v-2.808594c0-74.441406 60.558594-135 134.996094-135 74.441406 0 135 60.558594 135 135v.554688.5625h.011718c.183594 24.652343 20.535157 43.863281 45.023438 43.882812 24.914062.015625 45.964844 20.625 45.964844 45zm0 0"/></svg>