<svg height="512pt" viewBox="0 0 512 512" width="512pt" xmlns="http://www.w3.org/2000/svg"><path d="m171.863281 164.667969c14.152344 0 25.667969 11.511719 25.667969 25.667969h30c0-30.695313-24.972656-55.667969-55.667969-55.667969-30.695312 0-55.667969 24.972656-55.667969 55.667969h30c0-14.15625 11.515626-25.667969 25.667969-25.667969zm0 0"/><path d="m340.136719 164.667969c14.152343 0 25.667969 11.511719 25.667969 25.667969h30c0-30.695313-24.972657-55.667969-55.667969-55.667969-30.695313 0-55.667969 24.972656-55.667969 55.667969h30c0-14.15625 11.511719-25.667969 25.667969-25.667969zm0 0"/><path d="m511.429688 273.042969c.367187-5.648438.570312-11.328125.570312-17.042969 0-68.378906-26.628906-132.667969-74.980469-181.019531-48.351562-48.351563-112.640625-74.980469-181.019531-74.980469s-132.667969 26.628906-181.019531 74.980469c-48.351563 48.351562-74.980469 112.640625-74.980469 181.019531 0 5.714844.203125 11.394531.570312 17.042969-1.492187 12.65625.253907 25.621093 5.246094 37.546875 10.273438 47.542968 33.949219 91.214844 69.164063 126.429687 48.351562 48.351563 112.640625 74.980469 181.019531 74.980469s132.667969-26.628906 181.019531-74.980469c35.214844-35.214843 58.890625-78.882812 69.164063-126.425781 4.992187-11.925781 6.738281-24.890625 5.246094-37.550781zm-42.402344 40.09375c-8.367188 8.367187-19.492188 12.976562-31.324219 12.976562s-22.953125-4.609375-31.320313-12.976562c-10.925781-10.925781-15.695312-48.738281-16.226562-78.875 30.121094.515625 67.914062 5.277343 78.871094 16.234375 6.644531 6.644531 10.722656 14.898437 12.253906 23.519531-.738281 9.304687-2.035156 18.453125-3.871094 27.410156-2.082031 4.226563-4.867187 8.195313-8.382812 11.710938zm-434.441406-11.710938c-1.832032-8.957031-3.128907-18.105469-3.867188-27.410156 1.527344-8.621094 5.605469-16.875 12.253906-23.519531 10.929688-10.929688 48.738282-15.695313 78.878906-16.226563-.519531 30.121094-5.28125 67.914063-16.234374 78.871094-8.367188 8.363281-19.488282 12.972656-31.320313 12.972656s-22.957031-4.609375-31.324219-12.972656c-3.515625-3.519531-6.300781-7.488281-8.386718-11.714844zm112.824218-16.714843h217.179688c2.121094 12.261718 4.972656 22.566406 8.585937 30.996093h-234.351562c3.613281-8.429687 6.464843-18.734375 8.585937-30.996093zm219.242188 60.996093c-24.234375 35.183594-64.792969 58.292969-110.652344 58.292969s-86.417969-23.109375-110.65625-58.292969zm-110.652344-315.707031c112.75 0 206.476562 82.996094 223.304688 191.105469-13.273438-7.585938-32.785157-12.558594-59.109376-15.09375-23.886718-2.304688-44.5625-1.671875-45.433593-1.644531l-14.054688.457031-.453125 14.050781c-.023437.75-.496094 16.253906.851563 35.835938h-210.214844c1.351563-19.582032.878906-35.085938.855469-35.835938l-.457032-14.050781-14.050781-.457031c-.871093-.027344-21.550781-.660157-45.433593 1.644531-26.324219 2.539062-45.835938 7.507812-59.109376 15.09375 16.828126-108.109375 110.554688-191.105469 223.304688-191.105469zm0 452c-90.066406 0-167.984375-52.964844-204.273438-129.378906 7.203126 2.289062 14.792969 3.492187 22.570313 3.492187 13.007813 0 25.5-3.34375 36.519531-9.585937 27.617188 51.984375 82.328125 87.472656 145.183594 87.472656s117.570312-35.484375 145.1875-87.46875c11.023438 6.238281 23.507812 9.582031 36.515625 9.582031 7.777344 0 15.367187-1.203125 22.570313-3.492187-36.289063 76.414062-114.207032 129.378906-204.273438 129.378906zm0 0"/></svg>