<?xml version="1.0" encoding="iso-8859-1"?>
<!-- Generator: Adobe Illustrator 19.0.0, SVG Export Plug-In . SVG Version: 6.00 Build 0)  -->
<svg version="1.1" id="Capa_1" xmlns="http://www.w3.org/2000/svg" xmlns:xlink="http://www.w3.org/1999/xlink" x="0px" y="0px"
	 viewBox="0 0 512 512" style="enable-background:new 0 0 512 512;" xml:space="preserve">
<g>
	<g>
		<path d="M417.964,392.966l-10.32-41.453C444.368,312.652,464.5,262.209,464.5,208.5C464.5,93.533,370.967,0,256,0
			S47.5,93.533,47.5,208.5c0,53.708,20.132,104.151,56.855,143.012l-10.319,41.453C58.349,398.713,31,429.717,31,467v45h450v-45
			C481,429.717,453.651,398.712,417.964,392.966z M77.5,208.5C77.5,110.075,157.575,30,256,30s178.5,80.075,178.5,178.5
			c0,46.468-17.609,90.086-49.699,123.502l-257.602-0.001C95.109,298.584,77.5,254.967,77.5,208.5z M386.807,392H125.192l7.468-30
			l246.68,0.001L386.807,392z M451,482H61v-15c0-24.813,20.187-45,45-45h300c24.813,0,45,20.187,45,45V482z"/>
	</g>
</g>
<g>
	<g>
		<polygon points="374.5,193.5 374.5,163.5 344.5,163.5 344.5,193.5 314.5,193.5 314.5,223.5 344.5,223.5 344.5,253.5 374.5,253.5 
			374.5,223.5 404.5,223.5 404.5,193.5 		"/>
	</g>
</g>
<g>
	<g>
		<rect x="284.5" y="123.5" width="30" height="30"/>
	</g>
</g>
<g>
	<g>
		<rect x="284.5" y="263.5" width="30" height="30"/>
	</g>
</g>
<g>
</g>
<g>
</g>
<g>
</g>
<g>
</g>
<g>
</g>
<g>
</g>
<g>
</g>
<g>
</g>
<g>
</g>
<g>
</g>
<g>
</g>
<g>
</g>
<g>
</g>
<g>
</g>
<g>
</g>
</svg>
