<svg height="512pt" viewBox="0 0 512 512" width="512pt" xmlns="http://www.w3.org/2000/svg"><path d="m396 274.167969h30v42.667969h-30zm0 0"/><path d="m396 359.5h30v42.667969h-30zm0 0"/><path d="m86 241.332031h30v42.667969h-30zm0 0"/><path d="m86 326.664062h30v42.667969h-30zm0 0"/><path d="m484.332031 482v-279.667969h-53.332031v-89.332031h-75.460938l-31.207031-15.605469v-48.394531h-53.332031v-49h-30v49h-53.332031v48.394531l-42.667969 21.335938v47.605469h-117.332031v315.664062h-27.667969v30h512v-30zm-309.332031 0v-344.730469l42.667969-21.332031v-36.9375h76.664062v36.9375l42.667969 21.332031v344.730469zm-117.332031-285.667969h87.332031v285.667969h-87.332031zm343.332031 6h-34v-59.332031h34zm-34 30h87.332031v249.667969h-87.332031zm0 0"/><path d="m209 188.832031h30v42.667969h-30zm0 0"/><path d="m273 188.832031h30v42.667969h-30zm0 0"/><path d="m209 274.167969h30v42.667969h-30zm0 0"/><path d="m273 274.167969h30v42.667969h-30zm0 0"/><path d="m209 359.5h30v42.667969h-30zm0 0"/><path d="m273 359.5h30v42.667969h-30zm0 0"/></svg>