<svg id="Capa_1" enable-background="new 0 0 512 512" height="512" viewBox="0 0 512 512" width="512" xmlns="http://www.w3.org/2000/svg"><g><path d="m484.571 61.101-33.671-33.671c-17.688-17.688-41.206-27.43-66.221-27.43s-48.532 9.741-66.219 27.43l-82.719 83.172c-17.105 17.104-26.525 39.846-26.525 64.036s9.42 46.932 26.525 64.036l8.182 8.182-37.201 37.201c-2.129-16.041-9.328-31.532-21.628-43.832l-52.707-52.708-10.611 10.611c-29.75 29.749-29.75 78.156 0 107.905l31.485 31.485-44.307 44.307c-2.186-16.53-9.674-31.81-21.663-43.798l-52.708-52.708-10.611 10.611c-29.749 29.749-29.749 78.156 0 107.905l31.486 31.486-55.458 55.457 21.222 21.222 55.457-55.457 31.485 31.485c14.875 14.875 34.414 22.312 53.952 22.312 19.539 0 39.078-7.437 53.953-22.312l10.611-10.611-52.708-52.707c-12.3-12.3-27.791-19.5-43.833-21.628l44.341-44.341 31.485 31.485c14.411 14.411 33.572 22.348 53.953 22.348s39.541-7.937 53.953-22.348l10.61-10.611-52.707-52.707c-11.989-11.989-27.269-19.477-43.799-21.663l37.167-37.167 8.386 8.386c17.105 17.105 39.846 26.525 64.036 26.525s46.932-9.42 64.036-26.525l82.968-82.922c17.688-17.688 27.43-41.205 27.43-66.22.002-25.016-9.739-48.533-27.427-66.221zm-409.641 351.248-29.736-29.735c-14.336-14.336-17.284-35.812-8.846-53.085l29.721 29.721c8.742 8.742 13.557 20.366 13.557 32.73 0 7.178-1.624 14.109-4.696 20.369zm77.821 33.583 29.72 29.721c-17.273 8.438-38.749 5.489-53.085-8.846l-29.72-29.721c17.275-8.437 38.75-5.489 53.085 8.846zm19.966-131.401-29.721-29.72c-14.335-14.336-17.284-35.812-8.846-53.085l29.721 29.72c14.335 14.336 17.285 35.812 8.846 53.085zm77.837 33.598 29.735 29.736c-6.26 3.073-13.19 4.696-20.369 4.696-12.364 0-23.988-4.815-32.731-13.557l-29.735-29.736c6.261-3.073 13.191-4.696 20.37-4.696 12.364 0 23.988 4.815 32.73 13.557zm72.394-282.744 16.734-16.734c12.019-12.019 28-18.639 44.997-18.639 5.723 0 11.326.768 16.706 2.222-10.015 3.684-19.572 9.642-27.794 17.864l-24.68 24.68.008.008c-7.914 7.957-12.274 18.513-12.274 29.741 0 11.267 4.388 21.859 12.354 29.825l28.753 28.754c2.904 2.904 6.134 5.284 9.568 7.162-7.149 5.668-15.512 9.058-24.044 9.655-9.47.659-17.999-2.266-24.026-8.242l-16.302-16.302c-12.019-12.019-18.639-28-18.639-44.998 0-16.995 6.62-32.976 18.639-44.996zm66.586 30.684 27.094 27.094c5.17 5.17 5.17 13.553 0 18.724s-13.553 5.17-18.724 0l-27.094-27.094c-5.17-5.17-5.17-13.553 0-18.724 5.171-5.171 13.554-5.171 18.724 0zm-9.153 159.172c-11.436 11.436-26.641 17.734-42.814 17.734s-31.378-6.298-42.815-17.734l-37.789-37.789c-11.436-11.436-17.734-26.642-17.734-42.815s6.298-31.378 17.734-42.814l17.423-17.423c.985 23.507 10.602 45.466 27.34 62.203l33.672 33.672c16.831 16.831 38.941 26.46 62.596 27.354zm82.968-82.922-16.734 16.734c-12.019 12.019-28 18.639-44.998 18.639-5.627 0-11.138-.741-16.435-2.147 10.162-3.775 19.623-9.839 27.659-17.875l24.545-24.545c.006-.006.012-.012.018-.018s.012-.012.018-.018l.1-.1-.003-.003c16.327-16.456 16.291-43.124-.115-59.531l-28.753-28.752c-2.876-2.876-6.098-5.278-9.567-7.183 14.978-11.873 34.638-13.175 46.727-2.701.008-.003.017-.005.026-.008l17.512 17.512c12.019 12.019 18.639 28 18.639 44.997 0 16.999-6.62 32.98-18.639 44.999z"/></g></svg>