<?xml version="1.0" encoding="iso-8859-1"?>
<!-- Generator: Adobe Illustrator 19.0.0, SVG Export Plug-In . SVG Version: 6.00 Build 0)  -->
<svg version="1.1" id="Layer_1" xmlns="http://www.w3.org/2000/svg" xmlns:xlink="http://www.w3.org/1999/xlink" x="0px" y="0px"
	 viewBox="0 0 512 512" style="enable-background:new 0 0 512 512;" xml:space="preserve">
<g>
	<g>
		<path d="M495.304,79.714c-77.743,0-141.049,22.691-188.16,67.44c-38.735,36.793-57.109,79.23-68.087,104.584
			c-2.362,5.456-4.402,10.169-6.008,13.288c-1.349,2.62-4.402,3.243-6.102,3.383c-3.299,0.262-5.661-0.874-6.278-1.496
			c0-0.013,0-0.027,0-0.042v-84.88H0v91.728c0,87.435,71.756,158.568,159.954,158.568c48.883,0,88.287-16.298,120.466-49.824
			c27.065-28.199,44.892-64.558,60.621-96.637c9.99-20.374,19.425-39.618,29.933-54.359c41.208-57.807,124.83-65.319,125.643-65.385
			L512,164.868V79.714H495.304z M33.391,215.382h153.887v13.974H33.391V215.382z M478.61,134.89h-0.001
			c-29.886,5.228-95.911,22.606-134.824,77.194c-12.095,16.967-22.116,37.404-32.725,59.041
			c-30.799,62.816-62.645,127.77-151.106,127.77c-69.787,0-126.563-56.153-126.563-125.176v-10.971h153.887v4.123
			c0,16.332,11.071,29.567,28.207,33.721c19.262,4.664,38.698-3.67,47.25-20.277c2.118-4.113,4.364-9.299,6.965-15.308
			c9.966-23.017,26.645-61.54,60.442-93.641c37.357-35.484,87.245-54.912,148.468-57.863V134.89z"/>
	</g>
</g>
<g>
</g>
<g>
</g>
<g>
</g>
<g>
</g>
<g>
</g>
<g>
</g>
<g>
</g>
<g>
</g>
<g>
</g>
<g>
</g>
<g>
</g>
<g>
</g>
<g>
</g>
<g>
</g>
<g>
</g>
</svg>
